<svg xmlns="http://www.w3.org/2000/svg" width="296" height="370" viewBox="0 0 296 370" fill="none">
    <path d="M272.561 148C285.506 148 296.189 158.558 294.148 171.341C291.274 189.338 285.089 206.717 275.838 222.575C262.634 245.21 243.657 263.933 220.846 276.831C198.035 289.729 172.209 296.34 146.006 295.987C119.804 295.634 94.165 288.33 71.71 274.822C49.2549 261.314 30.7889 242.086 18.1993 219.104C5.60966 196.122 -0.652197 170.208 0.0537083 144.013C0.759614 117.818 8.40797 92.2797 22.2171 70.0086C31.8916 54.4058 44.3468 40.7986 58.8985 29.8267C69.2345 22.0333 83.5681 26.5239 89.6337 37.9597C95.6994 49.3955 91.0986 63.4095 81.362 71.94C73.8681 78.5057 67.3532 86.1711 62.0577 94.7116C52.6224 109.929 47.3966 127.378 46.9143 145.276C46.432 163.174 50.7105 180.88 59.3125 196.582C67.9145 212.285 80.5315 225.423 95.8741 234.652C111.217 243.882 128.735 248.872 146.638 249.113C164.541 249.354 182.187 244.838 197.773 236.025C213.358 227.212 226.325 214.419 235.347 198.954C240.41 190.274 244.129 180.927 246.418 171.23C249.392 158.631 259.616 148 272.561 148Z" fill="#8278DC"/>
    <rect x="161.345" y="185.606" width="49.7377" height="184.393" rx="22" fill="#ADEE84"/>
    <rect x="120.099" y="249.902" width="27.9016" height="89.7705" rx="13.9508" fill="#8AEFF7"/>
</svg>