<svg xmlns="http://www.w3.org/2000/svg" width="356" height="356" viewBox="0 0 356 356" fill="none">
    <path d="M210.833 290.107C214.263 301.776 207.576 314.204 195.512 315.751C184.752 317.131 173.841 317.25 163.004 316.088C144.847 314.142 127.251 308.638 111.221 299.891C95.1914 291.145 81.0411 279.327 69.5785 265.111C58.1159 250.896 49.5655 234.562 44.4153 217.043C39.2652 199.523 37.6162 181.16 39.5626 163.003C41.509 144.846 47.0127 127.251 55.7593 111.221C64.5059 95.1905 76.3242 81.0403 90.5394 69.5777C99.0239 62.7361 108.263 56.932 118.059 52.269C129.041 47.0415 141.389 53.8739 144.819 65.5427C148.249 77.2115 141.376 89.2452 130.807 95.2642C126.386 97.7816 122.165 100.656 118.187 103.864C108.474 111.696 100.399 121.364 94.4227 132.317C88.4465 143.27 84.6861 155.292 83.3562 167.698C82.0263 180.104 83.153 192.65 86.6718 204.621C90.1907 216.591 96.0329 227.751 103.865 237.464C111.697 247.177 121.365 255.252 132.318 261.228C143.27 267.204 155.293 270.965 167.699 272.294C172.78 272.839 177.886 272.972 182.965 272.697C195.11 272.039 207.402 278.438 210.833 290.107Z" fill="#ADEE84"/>
    <circle cx="182.276" cy="176.934" r="56.0706" transform="rotate(-5.89296 182.276 176.934)" fill="#8278DC"/>
    <circle cx="227.722" cy="71.1113" r="19.7896" transform="rotate(-5.89296 227.722 71.1113)" fill="#8AEFF6"/>
</svg>