<svg width="16" height="16" viewBox="0 0 16 16" fill="none" xmlns="http://www.w3.org/2000/svg">
<path d="M10 9.09951C10.4971 9.09951 10.9 9.50245 10.9 9.99951C10.9 10.4966 10.4971 10.8995 10 10.8995C9.50294 10.8995 9.1 10.4966 9.1 9.99951C9.1 9.50245 9.50294 9.09951 10 9.09951Z" fill="#808080"/>
<path fill-rule="evenodd" clip-rule="evenodd" d="M4.49994 2.3206C3.97486 2.4636 3.5498 2.69762 3.12398 3.12344C2.24873 3.99869 2.18383 4.87069 2.05404 6.61468C2.02039 7.06676 2 7.53311 2 7.99946C2 8.46581 2.02039 8.93216 2.05404 9.38425C2.18383 11.1282 2.24873 12.0002 3.12398 12.8755C3.99923 13.7507 4.87122 13.8156 6.61522 13.9454C7.0673 13.9791 7.53365 13.9995 8 13.9995C8.46635 13.9995 8.9327 13.9791 9.38478 13.9454C11.1288 13.8156 12.0008 13.7507 12.876 12.8755C13.7513 12.0002 13.8162 11.1282 13.946 9.38425C13.9796 8.93216 14 8.46581 14 7.99946C14 7.53311 13.9796 7.06676 13.946 6.61468C13.8162 4.87069 13.7513 3.99869 12.876 3.12344C12.4502 2.69761 12.0251 2.46359 11.5 2.3206V1.75C11.5 1.33579 11.1642 1 10.75 1C10.3358 1 10 1.33579 10 1.75V2.10087C9.80745 2.08495 9.60294 2.06973 9.38479 2.0535C8.9327 2.01985 8.46635 1.99946 8 1.99946C7.53365 1.99946 7.0673 2.01985 6.61522 2.0535C6.39705 2.06973 6.19253 2.08496 5.99994 2.10088V1.75436C5.99994 1.34015 5.66415 1.00436 5.24994 1.00436C4.83573 1.00436 4.49994 1.34015 4.49994 1.75436V2.3206ZM10.75 4.99751C10.3358 4.99751 10 4.66172 10 4.24751V3.60813C9.78894 3.58898 9.54864 3.56984 9.27346 3.54936C8.8521 3.518 8.42337 3.49946 8 3.49946C7.57663 3.49946 7.1479 3.518 6.72655 3.54936C6.45134 3.56984 6.21104 3.58899 5.99994 3.60813V4.25776C5.99994 4.67198 5.66415 5.00776 5.24994 5.00776C4.83573 5.00776 4.49994 4.67198 4.49994 4.25776V3.92679C4.38595 3.99529 4.28978 4.07896 4.18464 4.1841C3.82674 4.542 3.71765 4.79592 3.60835 6.00288H12.3916C12.2823 4.79592 12.1733 4.542 11.8154 4.1841C11.7102 4.07895 11.614 3.99528 11.5 3.92677V4.24751C11.5 4.66172 11.1642 4.99751 10.75 4.99751ZM3.50811 7.50288C3.50281 7.66872 3.5 7.8345 3.5 7.99946C3.5 8.42283 3.51854 8.85156 3.5499 9.27292C3.6872 11.1177 3.7644 11.3946 4.18464 11.8148C4.60488 12.2351 4.88177 12.3123 6.72654 12.4496C7.1479 12.4809 7.57663 12.4995 8 12.4995C8.42337 12.4995 8.8521 12.4809 9.27346 12.4496C11.1182 12.3123 11.3951 12.2351 11.8154 11.8148C12.2356 11.3946 12.3128 11.1177 12.4501 9.27292C12.4815 8.85156 12.5 8.42283 12.5 7.99946C12.5 7.8345 12.4972 7.66872 12.4919 7.50288H3.50811Z" fill="#808080"/>
</svg>
