<svg xmlns="http://www.w3.org/2000/svg" width="16" height="20" viewBox="0 0 16 20" fill="none">
<path d="M6.16406 5.75196C6.16406 5.08338 6.97192 4.74855 7.44439 5.22131L9.20307 6.98106C10.6253 8.40416 11.3364 9.11571 11.3364 9.9999C11.3364 10.8841 10.6253 11.5956 9.20306 13.0187L7.44439 14.7785C6.97192 15.2513 6.16406 14.9164 6.16406 14.2478C6.16406 14.0488 6.24308 13.8579 6.38373 13.7172L8.1424 11.9574C8.8835 11.2159 9.33037 10.7642 9.61053 10.3968C9.73984 10.2272 9.79494 10.1236 9.81862 10.0668C9.83652 10.0239 9.83644 10.0087 9.8364 10.0009L9.8364 9.9999L9.8364 9.9989C9.83644 9.99111 9.83652 9.97594 9.81862 9.93301C9.79494 9.87617 9.73984 9.77258 9.61053 9.603C9.33037 9.23558 8.8835 8.78393 8.14241 8.04237L6.38373 6.28262C6.24308 6.14188 6.16406 5.951 6.16406 5.75196Z" fill="#808080"/>
</svg>